<svg viewBox="0 0 1885 342" xmlns="http://www.w3.org/2000/svg" xml:space="preserve" style="fill-rule:evenodd;clip-rule:evenodd;stroke-linejoin:round;stroke-miterlimit:2"><path d="M70.427 198.465c-11.045 0-20 8.954-20 20v301.67c0 11.046 8.955 20 20 20h741.992a25 25 0 0 0 22.458-14.017l35.194-71.968a20 20 0 0 1 17.967-11.213h234.932c8 0 15.23 4.768 18.39 12.123 7.58 17.709 21.69 50.636 29.95 69.921a25.004 25.004 0 0 0 22.98 15.154h720.87c5.31 0 10.39-2.107 14.15-5.858a19.996 19.996 0 0 0 5.85-14.142v-301.67c0-11.046-8.95-20-20-20H70.427Z"  transform="translate(-50.427 -198.465)"/></svg>